HIERARCHY
ROOT Hips
{
	OFFSET -3.958830 18.904000 13.208200
	CHANNELS 6 Xposition Yposition Zposition Zrotation Yrotation Xrotation 
	JOINT LHipJoint
	{
		OFFSET 0.000000 0.000000 0.000000
		CHANNELS 3 Zrotation Yrotation Xrotation
		JOINT LeftUpLeg
		{
			OFFSET 1.800000 -1.400000 0.085000
			CHANNELS 3 Zrotation Yrotation Xrotation
			JOINT LeftLeg
			{
				OFFSET 2.215000 -6.000000 0.000000
				CHANNELS 3 Zrotation Yrotation Xrotation
				JOINT LeftFoot
				{
					OFFSET 2.500000 -6.900000 0.000000
					CHANNELS 3 Zrotation Yrotation Xrotation
					JOINT LeftToeBase
					{
						OFFSET 0.200000 -0.500000 1.950000
						CHANNELS 3 Zrotation Yrotation Xrotation
						End Site
						{
							OFFSET 0.000000 0.000000 0.000000
						}
					}
				}
			}
		}
	}
	JOINT RHipJoint
	{
		OFFSET 0.000000 0.000000 0.000000
		CHANNELS 3 Zrotation Yrotation Xrotation
		JOINT RightUpLeg
		{
			OFFSET -1.800000 -1.400000 0.085000
			CHANNELS 3 Zrotation Yrotation Xrotation
			JOINT RightLeg
			{
				OFFSET -2.215000 -6.000000 0.000000
				CHANNELS 3 Zrotation Yrotation Xrotation
				JOINT RightFoot
				{
					OFFSET -2.500000 -6.900000 0.000000
					CHANNELS 3 Zrotation Yrotation Xrotation
					JOINT RightToeBase
					{
						OFFSET -0.200000 -0.500000 1.950000
						CHANNELS 3 Zrotation Yrotation Xrotation
						End Site
						{
							OFFSET 0.000000 0.000000 0.000000
						}
					}
				}
			}
		}
	}
	JOINT LowerBack
	{
		OFFSET 0.000000 0.000000 0.000000
		CHANNELS 3 Zrotation Yrotation Xrotation
		JOINT Spine
		{
			OFFSET -0.087000 1.940000 -0.288900
			CHANNELS 3 Zrotation Yrotation Xrotation
			JOINT Spine1
			{
				OFFSET 0.000000 1.950000 0.060000
				CHANNELS 3 Zrotation Yrotation Xrotation
				JOINT Neck
				{
					OFFSET 0.000000 0.000000 0.000000
					CHANNELS 3 Zrotation Yrotation Xrotation
					JOINT Neck1
					{
						OFFSET 0.000000 1.600000 0.340000
						CHANNELS 3 Zrotation Yrotation Xrotation
						JOINT Head
						{
							OFFSET 0.000000 1.667000 -0.240000
							CHANNELS 3 Zrotation Yrotation Xrotation
							End Site
							{
								OFFSET 0.000000 0.000000 0.000000
							}
						}
					}
				}
				JOINT LeftShoulder
				{
					OFFSET 0.000000 0.000000 0.000000
					CHANNELS 3 Zrotation Yrotation Xrotation
					JOINT LeftArm
					{
						OFFSET 2.700000 1.550000 -0.730000
						CHANNELS 3 Zrotation Yrotation Xrotation
						JOINT LeftForeArm
						{
							OFFSET 5.450000 0.000000 0.000000
							CHANNELS 3 Zrotation Yrotation Xrotation
							JOINT LeftHand
							{
								OFFSET 3.450000 0.000000 0.000000
								CHANNELS 3 Zrotation Yrotation Xrotation
								JOINT LeftHandIndex1
								{
									OFFSET 0.750000 0.000000 0.000000
									CHANNELS 3 Zrotation Yrotation Xrotation
									End Site
									{
										OFFSET 0.000000 0.000000 0.000000
									}
								}
							}
						}
					}
				}
				JOINT RightShoulder
				{
					OFFSET 0.000000 0.000000 0.000000
					CHANNELS 3 Zrotation Yrotation Xrotation
					JOINT RightArm
					{
						OFFSET -2.700000 1.550000 -0.730000
						CHANNELS 3 Zrotation Yrotation Xrotation
						JOINT RightForeArm
						{
							OFFSET -5.450000 0.000000 0.000000
							CHANNELS 3 Zrotation Yrotation Xrotation
							JOINT RightHand
							{
								OFFSET -3.450000 0.000000 0.000000
								CHANNELS 3 Zrotation Yrotation Xrotation
								JOINT RightHandIndex1
								{
									OFFSET -0.750000 0.000000 0.000000
									CHANNELS 3 Zrotation Yrotation Xrotation
									End Site
									{
										OFFSET 0.000000 0.000000 0.000000
									}
								}
							}
						}
					}
				}
			}
		}
	}
}
MOTION
Frames: 13
Frame Time: 0.016667
1.988790 17.269850 -10.546600 4.161351 39.315609 -0.234583 -15.273845 11.779981 3.078707 -3.348298 1.500034 3.040199 -11.683395 5.409589 1.828659 -0.377492 5.005749 3.118067 0.533630 0.207750 0.347270 18.449218 -10.916132 3.107542 1.500683 0.022477 -6.875253 7.059208 -3.648932 -0.469448 -0.442329 -3.755540 3.069038 0.320270 0.488300 0.441310 -4.561690 1.092820 -7.605062 9.121081 -2.265697 4.171741 -7.332565 -1.957095 15.975258 4.856786 3.454901 -12.071704 6.423172 -7.466572 28.305813 -5.131720 -6.883450 -10.313550 -9.524545 -21.567224 9.260427 -4.505166 -6.704678 1.700112 10.855891 -0.648660 -1.053933 -4.352845 2.815589 0.369350 0.328300 -0.079270 0.296310 0.677860 22.162619 5.054308 22.211077 31.155821 -1.799070 -19.094442 48.635928 -8.700794 1.496556 -1.480736 -0.208720 0.349570 0.041330 -0.111450 
1.979570 17.265240 -10.551860 4.180580 39.023516 -0.230349 -15.271804 11.772746 3.077296 -3.472293 1.494828 2.982853 -11.621541 5.400032 1.885388 -0.401102 5.004795 3.114475 0.537940 0.209260 0.358430 18.453174 -10.912282 3.110566 1.518219 0.041899 -6.955545 7.147259 -3.645464 -0.543855 -0.440857 -3.752008 3.066111 0.329320 0.486340 0.439480 -4.557313 1.103134 -7.597477 9.107183 -2.269894 4.193740 -7.251214 -1.993461 15.915564 4.886507 3.393246 -11.933084 6.343768 -7.291196 28.135421 -5.330700 -6.659650 -10.534060 -9.503369 -21.218600 9.160000 -4.544314 -6.394498 1.733490 10.754329 -1.465382 -1.084047 -4.343495 2.809296 0.377100 0.330640 -0.080410 0.289910 0.638018 21.878130 4.918597 22.247727 31.347599 -1.578260 -19.078908 48.186177 -8.588968 1.493295 -1.475900 -0.218480 0.356110 0.045310 -0.122320 
1.966290 17.257360 -10.560110 4.067919 38.641191 -0.272755 -15.266633 11.765478 3.075513 -3.554219 1.482079 2.909362 -11.543347 5.367721 1.836077 -0.417304 5.001692 3.115610 0.535520 0.205350 0.360400 18.460851 -10.902127 3.116365 1.612061 0.076771 -7.101402 7.354109 -3.653630 -0.604779 -0.440104 -3.749361 3.062169 0.331990 0.492260 0.444920 -4.563157 1.106207 -7.593042 9.311416 -2.272388 4.168889 -7.180996 -2.028702 15.811199 4.890284 3.250878 -11.815544 6.115725 -7.020712 27.941013 -5.577870 -6.353860 -10.601420 -9.291461 -20.732317 9.018123 -5.012692 -6.038759 1.716021 11.012655 -2.815750 -1.131090 -4.329387 2.813381 0.381260 0.338130 -0.081160 0.287470 0.427887 21.465173 4.859696 22.335485 31.290581 -1.321641 -18.811907 47.358619 -8.286735 1.495322 -1.478063 -0.225280 0.359610 0.051450 -0.127090 
1.947260 17.246480 -10.568430 4.268321 38.173832 -0.110344 -15.268567 11.741230 3.094546 -3.872249 1.526156 2.958668 -11.565803 5.295929 1.435012 -0.432914 5.006265 3.109110 0.535460 0.207550 0.359180 18.466233 -10.880406 3.109299 1.579966 0.107471 -7.262055 7.430853 -3.634599 -0.741395 -0.434396 -3.746506 3.055462 0.342590 0.500610 0.450260 -4.533035 1.104852 -7.579298 9.056024 -2.239823 4.095108 -7.110338 -2.009967 15.748929 4.976423 3.120658 -11.627764 5.937677 -6.522730 27.672411 -5.613360 -5.938100 -10.706850 -8.865352 -20.108405 8.810890 -5.511784 -5.773949 1.699836 11.348575 -4.139473 -1.189043 -4.325748 2.821222 0.378940 0.348920 -0.086730 0.282390 -0.107398 20.954871 4.695623 22.161592 31.476180 -0.808491 -18.188548 46.392347 -7.780893 1.496345 -1.485146 -0.231360 0.363270 0.062360 -0.131530 
1.925030 17.236610 -10.576240 4.521156 37.755730 0.086286 -15.267700 11.722304 3.111320 -4.084102 1.567789 2.961872 -11.802384 5.282164 1.140148 -0.436644 5.036546 3.104524 0.533700 0.205980 0.351330 18.471921 -10.870307 3.090119 1.491004 0.156318 -7.554281 7.519059 -3.636592 -0.599103 -0.419348 -3.743564 3.054454 0.352020 0.524930 0.456850 -4.513352 1.110457 -7.555394 8.772074 -2.285295 3.999327 -7.107188 -2.061464 15.670547 4.977557 3.003592 -11.408527 5.784908 -5.962811 27.222132 -5.508150 -5.546460 -10.415050 -8.625067 -19.459148 8.596972 -5.813021 -5.327136 1.645861 11.821375 -5.553554 -1.252716 -4.324632 2.839635 0.365200 0.369600 -0.102850 0.287120 -0.306494 20.403534 4.535485 22.190639 31.697710 -0.443073 -18.520126 45.664117 -7.801469 1.494403 -1.496853 -0.238630 0.368250 0.069540 -0.128920 
1.897010 17.236530 -10.587930 4.718084 37.419108 -0.118430 -15.274618 11.742914 3.131829 -4.135461 1.621495 3.129819 -12.041389 5.349229 1.200147 -0.422492 5.066114 3.086565 0.542540 0.216960 0.353770 18.461256 -10.870252 3.071749 1.356436 0.145402 -7.539695 7.524508 -3.686696 -0.213694 -0.423839 -3.733933 3.051967 0.353530 0.516010 0.460750 -4.480727 1.065393 -7.559121 8.460692 -2.371222 4.352794 -6.956258 -2.122635 15.817474 4.932840 2.842453 -11.378812 5.530415 -5.578734 27.420814 -5.166680 -5.380580 -10.816820 -8.385619 -19.113927 8.519095 -6.285088 -4.876062 1.520551 12.489278 -6.677372 -1.322806 -4.295096 2.857088 0.372540 0.358750 -0.092180 0.286680 -0.388575 20.250529 4.566471 21.858038 31.537798 -0.776766 -19.801615 45.147438 -8.293104 1.501192 -1.492086 -0.230050 0.364690 0.068600 -0.127490 
1.867030 17.236470 -10.603580 4.677676 36.985117 -0.382580 -15.275537 11.764785 3.151323 -4.141286 1.637437 3.233299 -12.082007 5.350220 1.087043 -0.410250 5.079483 3.081365 0.531800 0.199200 0.352230 18.456179 -10.873521 3.056144 1.422392 0.166169 -7.652579 7.419286 -3.723766 0.255144 -0.413745 -3.707670 3.058070 0.339050 0.515500 0.462530 -4.469034 1.027702 -7.568243 8.423467 -2.492991 4.648407 -6.780455 -2.253260 15.876145 4.808694 2.689331 -11.412422 5.281245 -5.249160 27.591854 -5.065200 -5.149950 -10.725020 -8.122831 -18.750826 8.490885 -7.057078 -4.070874 1.301693 13.374175 -8.461809 -1.441296 -4.262294 2.878248 0.374700 0.355580 -0.093510 0.279720 -0.391203 20.023071 4.678750 21.935845 31.265510 -1.113641 -21.253401 44.540069 -8.858630 1.512479 -1.485627 -0.229130 0.358130 0.075210 -0.129460 
1.834190 17.233260 -10.616800 4.792189 36.691264 -0.294391 -15.284409 11.790570 3.161554 -4.285763 1.607000 2.986464 -12.028289 5.326715 1.088979 -0.410076 5.066367 3.094504 0.510220 0.174520 0.339960 18.443701 -10.871024 3.038080 1.412746 0.231729 -8.036361 7.276833 -3.715203 0.605699 -0.385571 -3.675453 3.072868 0.328030 0.534450 0.460750 -4.420771 0.976186 -7.549014 7.891759 -2.604018 4.710782 -6.373704 -2.463956 15.715075 4.665101 2.740302 -11.416876 5.393796 -4.862500 27.359077 -5.156620 -4.684350 -10.022090 -7.831350 -18.231036 8.402256 -7.931224 -3.128000 1.043496 14.283430 -10.565978 -1.588527 -4.244450 2.900546 0.359260 0.373380 -0.112640 0.276920 -0.406544 19.472693 4.737522 22.456542 31.116175 -1.048229 -22.382866 43.649927 -9.243093 1.523060 -1.491775 -0.238060 0.354810 0.083010 -0.129230 
1.798560 17.236290 -10.632800 4.467782 36.240103 -0.487132 -15.284599 11.825264 3.162912 -4.189919 1.512544 2.669436 -11.864430 5.278562 1.096039 -0.406143 5.037060 3.111610 0.489230 0.143960 0.330200 18.437070 -10.872533 3.035904 1.706648 0.311886 -8.421893 7.096537 -3.705060 0.991132 -0.361493 -3.630699 3.091735 0.307150 0.544900 0.464990 -4.406211 0.929466 -7.552754 7.873303 -2.755222 4.897375 -6.141395 -2.681188 15.534101 4.533732 2.831234 -11.527541 5.556495 -4.550381 27.245697 -5.224670 -4.226890 -9.304420 -7.769927 -17.980699 8.446662 -8.563228 -1.953382 0.707268 15.259475 -12.624873 -1.773429 -4.218151 2.934242 0.349800 0.384740 -0.125460 0.274690 -0.277054 19.100818 4.874937 22.941583 30.777582 -1.117002 -23.394813 42.522447 -9.518493 1.541999 -1.503355 -0.240380 0.339950 0.087900 -0.130230 
1.759770 17.242320 -10.649320 4.185929 35.770659 -0.581520 -15.294837 11.881336 3.169835 -4.179036 1.414995 2.239486 -11.567251 5.202656 1.120734 -0.399177 4.975290 3.139893 0.466080 0.122200 0.320720 18.416634 -10.869241 3.030253 1.919769 0.408735 -8.943071 6.916013 -3.692734 1.461154 -0.336254 -3.569165 3.119059 0.286550 0.549750 0.465660 -4.349451 0.838460 -7.554731 7.572651 -2.851385 5.164274 -5.801622 -2.868930 15.226733 4.466951 3.096980 -11.689417 5.996302 -4.428939 27.142440 -5.549180 -3.687260 -8.640200 -7.947303 -17.852447 8.490951 -8.595914 -0.968706 0.451936 15.698382 -13.986421 -1.866366 -4.202775 2.950533 0.337220 0.396260 -0.130300 0.272510 -0.060608 18.719407 5.055528 23.237743 30.042243 -1.295551 -23.801510 41.737907 -9.564209 1.562645 -1.512373 -0.239010 0.326840 0.086750 -0.128580 
1.713700 17.244030 -10.664870 3.859252 35.254437 -0.420942 -15.300904 11.932252 3.158375 -4.155708 1.251312 1.453429 -11.324133 5.133199 1.306783 -0.411728 4.902284 3.175273 0.450000 0.108560 0.310060 18.403309 -10.855531 3.029052 2.138946 0.538073 -9.650406 6.763052 -3.636712 1.712006 -0.305721 -3.499691 3.153470 0.278430 0.566870 0.463880 -4.298266 0.739115 -7.535513 7.284377 -2.910369 5.261705 -5.364839 -3.046144 14.702539 4.248415 3.299240 -11.668224 6.300214 -4.298673 26.675758 -5.678280 -3.263310 -8.051490 -7.859916 -17.416221 8.304962 -8.557889 -0.666698 0.362985 15.455172 -14.861317 -1.866020 -4.207876 2.949201 0.321060 0.415520 -0.143220 0.276770 0.182322 17.974047 5.124896 23.860637 29.257469 -1.302513 -24.033354 41.115592 -9.551276 1.573098 -1.522381 -0.244160 0.325660 0.085240 -0.125500 
1.664650 17.248240 -10.678670 3.436605 34.398751 -0.331834 -15.311106 11.982342 3.159209 -4.047856 1.078533 0.700712 -11.219420 5.041475 1.243495 -0.431475 4.833239 3.197893 0.442600 0.100560 0.316970 18.386239 -10.832041 3.030210 2.381951 0.646083 -10.224032 6.425630 -3.556383 1.820007 -0.287386 -3.420269 3.181207 0.271370 0.561530 0.463530 -4.221664 0.621599 -7.531407 6.948187 -2.820338 5.493302 -4.731849 -3.097343 14.223225 4.079156 3.519150 -11.749659 6.637968 -4.227458 26.380379 -5.975900 -2.740280 -7.953140 -7.656854 -17.066501 8.137857 -8.385102 -0.611625 0.352505 14.893729 -14.993330 -1.794671 -4.214852 2.936129 0.323890 0.419830 -0.140450 0.271240 0.231958 17.334271 5.296970 24.310467 28.132588 -1.445740 -23.757926 40.388521 -9.285431 1.585430 -1.528575 -0.247600 0.319410 0.082980 -0.133630 
1.614210 17.255460 -10.691570 3.257376 33.401177 -0.095959 -15.332760 12.041343 3.167907 -4.087874 0.911182 -0.102041 -11.154037 4.961524 1.266718 -0.437115 4.746518 3.223132 0.449140 0.106960 0.333520 18.356254 -10.795985 3.030780 2.222978 0.685857 -10.573053 6.096760 -3.451624 1.500174 -0.288068 -3.355063 3.202698 0.263060 0.539440 0.466470 -4.095763 0.456261 -7.532062 6.102654 -2.584541 5.827634 -3.790615 -3.043573 13.708564 3.842302 3.777836 -11.920443 7.030014 -4.318792 26.310515 -6.124780 -2.357320 -8.124320 -7.353690 -16.762232 7.974578 -8.215156 -0.783438 0.344268 14.367512 -14.648990 -1.697978 -4.209112 2.926030 0.335270 0.408230 -0.120560 0.271410 0.327448 16.766090 5.576866 24.615479 26.525571 -1.896485 -23.482071 40.171981 -9.094632 1.600760 -1.534566 -0.238380 0.305270 0.066970 -0.138640 
